<svg width="74" height="71" viewBox="0 0 74 71" xmlns="http://www.w3.org/2000/svg" xmlns:xlink="http://www.w3.org/1999/xlink">
    <defs>
        <path id="g9b9hxk0qa" d="M0 0h73.64v70.981H0z"/>
    </defs>
    <g fill="none" fill-rule="evenodd">
        <path d="M4.26 35.968c-1.245 7.177-.258 14.03 2.642 18.33 3.92 5.814 10.665 8.157 16.68 9.897.994.287 2.012.556 3.026.8 5.576 1.338 11.47 2.015 17.53 2.015l.453-.001c8.614-.048 15.12-2.528 19.34-7.373 1.65-1.895 2.922-4.13 3.886-6.833.932-2.607 1.466-5.375 1.826-7.496.95-5.591-.19-12.574-3.052-18.68a34.707 34.707 0 0 0-4.52-7.2 7.366 7.366 0 0 0 1.002-2.773 7.337 7.337 0 0 0-1.38-5.48 7.336 7.336 0 0 0-4.849-2.897 7.33 7.33 0 0 0-6.46 2.259c-.065-.03-.124-.061-.19-.09a36.59 36.59 0 0 0-4.672-1.652c-1.215-.8-2.3-1.953-2.057-3.477.063-.394-.385-.686-.735-.472-.81.494-1.618 1.729-1.858 2.99a32.321 32.321 0 0 0-8.788-.002 7.335 7.335 0 0 0-5.529-4.014c-4.026-.593-7.785 2.202-8.378 6.229a7.355 7.355 0 0 0 .212 3.109 33.355 33.355 0 0 0-4.16 3.362c-5.098 4.874-8.64 11.78-9.97 19.449" fill="#231916"/>
        <g>
            <mask id="xul3x28a7b" fill="#fff">
                <use xlink:href="#g9b9hxk0qa"/>
            </mask>
            <path d="M3.802 56.389c4.847 7.189 13.571 10.197 21.609 12.203 14.39 3.59 34.958 5.042 43.627-9.825 6.003-10.296 5.941-23.057.938-33.726a38.63 38.63 0 0 0-3.595-6.133c.174-.555.304-1.126.39-1.71a11.048 11.048 0 0 0-2.077-8.253 11.05 11.05 0 0 0-7.306-4.367 11.036 11.036 0 0 0-7.65 1.658 41.058 41.058 0 0 0-2.532-.846 4.222 4.222 0 0 0-6.424-3.736c-.846.516-1.612 1.288-2.227 2.203a35.955 35.955 0 0 0-4.631.028A11.033 11.033 0 0 0 27.101.12 11.045 11.045 0 0 0 18.848 2.2a11.052 11.052 0 0 0-4.37 7.304 11.116 11.116 0 0 0-.113 1.968 35.863 35.863 0 0 0-2.719 2.345C5.973 19.239 2.042 26.879.576 35.329c-1.407 8.105-.201 15.978 3.226 21.06" fill="#FEFEFE" mask="url(#xul3x28a7b)"/>
        </g>
        <path d="M31.859 12.06a6.447 6.447 0 1 1-12.757-1.876 6.447 6.447 0 0 1 12.757 1.877" fill="#FFDE24"/>
        <path d="M25.477 5.609a5.522 5.522 0 0 0-5.451 4.711 5.48 5.48 0 0 0 1.03 4.091 5.476 5.476 0 0 0 3.622 2.165 5.474 5.474 0 0 0 4.09-1.03 5.474 5.474 0 0 0 2.166-3.621 5.473 5.473 0 0 0-1.03-4.092 5.475 5.475 0 0 0-3.621-2.165 5.515 5.515 0 0 0-.806-.059m.019 12.896c-.362 0-.726-.026-1.09-.08a7.332 7.332 0 0 1-4.85-2.899 7.33 7.33 0 0 1-1.378-5.478c.592-4.027 4.352-6.822 8.377-6.229a7.332 7.332 0 0 1 4.849 2.899 7.33 7.33 0 0 1 1.379 5.479 7.333 7.333 0 0 1-2.898 4.849 7.325 7.325 0 0 1-4.39 1.459" fill="#412211"/>
        <path d="M62.148 16.518A6.447 6.447 0 1 1 49.39 14.64a6.447 6.447 0 0 1 12.757 1.877" fill="#FFDE24"/>
        <path d="M55.758 10.066a5.467 5.467 0 0 0-3.278 1.09 5.471 5.471 0 0 0-2.164 3.62 5.519 5.519 0 0 0 4.65 6.258 5.482 5.482 0 0 0 4.093-1.03 5.48 5.48 0 0 0 2.165-3.623 5.48 5.48 0 0 0-1.03-4.09 5.476 5.476 0 0 0-3.622-2.165 5.619 5.619 0 0 0-.815-.06m.028 12.896c-.361 0-.725-.026-1.09-.08-4.026-.593-6.822-4.35-6.228-8.378a7.329 7.329 0 0 1 2.898-4.848 7.334 7.334 0 0 1 5.48-1.38 7.333 7.333 0 0 1 4.849 2.9 7.334 7.334 0 0 1 1.378 5.478 7.337 7.337 0 0 1-2.899 4.85 7.332 7.332 0 0 1-4.389 1.458" fill="#412211"/>
        <path d="M26.827 64.086c-1-.24-1.996-.503-2.985-.79-6.046-1.748-12.491-4.072-16.165-9.52-5.67-8.407-3.388-26.461 7.199-36.581 8.81-8.422 21.884-11.54 34.948-5.89C65.39 18.037 70.412 35.21 68.722 45.15c-.851 5.002-2.075 9.944-5.496 13.873-4.687 5.38-11.774 7.013-18.641 7.052-5.97.033-11.952-.596-17.758-1.99" fill="#FFDE24"/>
        <path d="M27.045 63.177c5.568 1.336 11.465 1.998 17.535 1.963 8.054-.045 14.09-2.31 17.94-6.73 3.093-3.552 4.347-7.932 5.28-13.417.89-5.23-.195-11.799-2.902-17.572-2.301-4.909-6.85-11.54-15.445-15.259-6.063-2.622-12.47-3.407-18.526-2.27-5.745 1.077-11.073 3.836-15.406 7.978-10.417 9.958-12.386 27.5-7.07 35.383 3.57 5.295 9.95 7.497 15.65 9.146.967.28 1.957.541 2.944.778m17.092 3.833c-6.058 0-11.953-.678-17.528-2.015a69.202 69.202 0 0 1-3.026-.8c-6.016-1.74-12.761-4.084-16.681-9.897-2.9-4.3-3.888-11.153-2.642-18.33C5.59 28.3 9.13 21.393 14.23 16.52c4.596-4.393 10.25-7.32 16.352-8.465 6.425-1.206 13.207-.378 19.613 2.393 9.133 3.95 13.957 10.98 16.395 16.18 2.863 6.105 4.004 13.088 3.053 18.68-.361 2.12-.894 4.89-1.825 7.496-.966 2.703-2.237 4.938-3.887 6.833-4.22 4.844-10.726 7.325-19.341 7.373l-.453.001M26.777 6.96c.261.659-.636 1.63-2.002 2.173-1.367.542-2.686.448-2.947-.21-.261-.657.636-1.63 2.002-2.172 1.367-.542 2.686-.448 2.947.21M55.916 11.329c-.439.555.14 1.744 1.292 2.657 1.152.912 2.443 1.202 2.882.648.44-.555-.139-1.744-1.292-2.657-1.152-.913-2.443-1.203-2.882-.648" fill="#412211"/>
        <path d="M41.623 8.867s-3.156 6.784-15.857 1.487c0 0 8.245-3.066 15.857-1.487" fill="#412211"/>
        <path d="M40.788 8.744s1.068 7.405 14.756 5.992c0 0-7.012-5.31-14.756-5.992" fill="#412211"/>
        <path d="M48.401 10.138s-5.45-1.59-4.937-4.82c.063-.395-.383-.687-.734-.474-1.378.842-2.772 3.833-1.316 5.441 2.091 2.31 6.987-.147 6.987-.147M43.533 15.185a.66.66 0 0 1-.076-.005l-6.072-.894a.514.514 0 1 1 .15-1.016l6.072.893a.513.513 0 0 1-.074 1.022M43.18 17.587a.66.66 0 0 1-.076-.005l-6.072-.894a.514.514 0 1 1 .149-1.016l6.073.893a.513.513 0 0 1-.074 1.022" fill="#412211"/>
        <path d="M39.79 19.541a.515.515 0 0 1-.509-.588l.707-4.803a.513.513 0 0 1 1.016.15l-.707 4.802a.514.514 0 0 1-.507.44" fill="#412211"/>
        <path d="M42.827 19.988a.66.66 0 0 1-.076-.005l-6.072-.894a.514.514 0 1 1 .148-1.016l6.074.893a.513.513 0 0 1-.075 1.022M5.725 39.37a1.437 1.437 0 0 1-.896-2.563c5.624-4.47 11.54-5.001 11.79-5.022a1.437 1.437 0 0 1 .238 2.866c-.09.009-5.345.519-10.238 4.408-.265.21-.58.312-.894.312M5.505 45.254a1.437 1.437 0 0 1-.896-2.564c5.624-4.469 11.54-5 11.79-5.022a1.438 1.438 0 0 1 .238 2.866c-.09.01-5.345.52-10.238 4.408-.265.21-.58.312-.894.312M6.543 51.008a1.437 1.437 0 0 1-.896-2.564c5.624-4.469 11.542-5 11.791-5.022a1.438 1.438 0 0 1 .238 2.866c-.092.01-5.346.52-10.238 4.408-.265.21-.58.312-.894.312M67.653 48.684c-.476 0-.941-.236-1.215-.668-3.327-5.24-8.075-7.374-8.123-7.395a1.44 1.44 0 0 1-.74-1.893 1.436 1.436 0 0 1 1.889-.744c.226.098 5.582 2.474 9.402 8.49a1.439 1.439 0 0 1-1.213 2.21M66.129 54.357c-.472 0-.934-.232-1.21-.658-3.397-5.26-8.234-7.41-8.282-7.432a1.44 1.44 0 0 1-.747-1.89 1.437 1.437 0 0 1 1.886-.75c.23.098 5.667 2.486 9.56 8.512a1.438 1.438 0 0 1-1.207 2.218M63.295 59.478c-.472 0-.934-.232-1.209-.658-3.398-5.26-8.235-7.41-8.283-7.432a1.437 1.437 0 0 1 1.139-2.641c.23.1 5.667 2.487 9.56 8.513a1.438 1.438 0 0 1-1.207 2.218" fill="#412211"/>
        <path d="M47.402 45.077c-.595 4.044-6.042 6.592-12.166 5.691-6.125-.901-10.607-4.91-10.012-8.955.596-4.044 6.043-6.592 12.167-5.691 6.124.902 10.606 4.911 10.01 8.955" fill="#FEFEFE"/>
        <path d="M27.12 35.138a3.635 3.635 0 1 1-7.192-1.058 3.635 3.635 0 0 1 7.192 1.058" fill="#EEAD94"/>
        <path d="M23.522 31.067a3.547 3.547 0 0 0-3.5 3.026 3.513 3.513 0 0 0 .661 2.628 3.518 3.518 0 0 0 2.326 1.391 3.547 3.547 0 0 0 4.02-2.988 3.545 3.545 0 0 0-3.507-4.057m.005 7.27a3.732 3.732 0 0 1-3.69-4.27 3.704 3.704 0 0 1 1.463-2.45 3.709 3.709 0 0 1 2.767-.697 3.704 3.704 0 0 1 2.45 1.464c.593.8.841 1.782.696 2.767a3.735 3.735 0 0 1-3.686 3.186" fill="#F4B5AD"/>
        <path d="M54.464 39.101a3.635 3.635 0 1 1-7.192-1.058 3.635 3.635 0 0 1 7.192 1.058" fill="#EEAD94"/>
        <path d="M50.86 35.03c-.754 0-1.487.241-2.104.7a3.518 3.518 0 0 0-1.391 2.326 3.513 3.513 0 0 0 .662 2.628 3.518 3.518 0 0 0 2.326 1.391 3.545 3.545 0 0 0 4.019-2.988 3.545 3.545 0 0 0-3.511-4.057m.01 7.27a3.732 3.732 0 0 1-3.691-4.27 3.704 3.704 0 0 1 1.464-2.45 3.709 3.709 0 0 1 2.767-.697 3.734 3.734 0 0 1 3.146 4.232A3.735 3.735 0 0 1 50.87 42.3" fill="#F4B5AD"/>
        <path d="M36.556 42.41a.616.616 0 0 1-.611-.706l.481-3.266a.618.618 0 0 1 1.22.18l-.48 3.265a.616.616 0 0 1-.61.527" fill="#412211"/>
        <path d="M35.367 34.724c1.198-.175 2.694-.297 4.547.767 2 1.148 1.056 2.404-.049 2.842-1.106.44-3.507 1.18-5.585-.807-1.967-1.879.45-2.709 1.087-2.802" fill="#EC6A00"/>
        <path d="M36.738 35.355c-.44 0-.858.05-1.263.11-.405.058-1.1.371-1.195.665-.043.136.07.43.516.856 1.271 1.215 2.84 1.428 4.793.653.448-.178.731-.485.745-.678.012-.17-.19-.474-.793-.822-1.062-.61-1.973-.784-2.803-.784zm.738 4.229c-1.69 0-2.908-.748-3.713-1.518-1.058-1.01-1.077-1.857-.907-2.39.368-1.154 1.86-1.611 2.403-1.692 1.462-.212 3.083-.257 5.027.86 1.35.773 1.581 1.636 1.54 2.224-.07.98-.917 1.656-1.686 1.96-.993.395-1.88.556-2.664.556z" fill="#412211"/>
        <path d="M44.987 30.211c.58.624 1.408.944 2.247.992.852.049 1.673-.267 2.314-.816.19-.164.3-.484.3-.727 0-.252-.111-.553-.3-.726-.435-.4-1.016-.374-1.452 0l-.097.08.207-.161a2.22 2.22 0 0 1-.468.269l.245-.104a2.444 2.444 0 0 1-.562.15l.273-.037a2.58 2.58 0 0 1-.627.002l.273.037a2.54 2.54 0 0 1-.606-.158l.246.103a2.269 2.269 0 0 1-.503-.29l.208.16a2.105 2.105 0 0 1-.245-.227c-.367-.394-1.087-.398-1.453 0a1.05 1.05 0 0 0 0 1.453M32.977 25.209c-.581-.623-1.408-.943-2.248-.99-.852-.047-1.673.268-2.314.819-.19.164-.301.483-.301.726 0 .252.112.553.3.726.437.4 1.018.375 1.454 0l.097-.08-.208.16a2.22 2.22 0 0 1 .468-.268l-.245.104c.182-.074.369-.123.562-.151l-.273.037a2.54 2.54 0 0 1 .669.002 25.53 25.53 0 0 1-.273-.037c.208.032.408.087.602.169l-.245-.104c.166.073.32.164.465.274-.07-.054-.14-.107-.208-.161.088.07.169.145.245.227.368.394 1.087.399 1.453 0a1.05 1.05 0 0 0 0-1.453" fill="#FEFEFE"/>
        <path d="M47.256 34.703a1.396 1.396 0 1 1-2.672-.812 1.396 1.396 0 0 1 2.672.812M30.635 32.233a1.396 1.396 0 1 1-2.672-.812 1.396 1.396 0 0 1 2.672.812" fill="#412211"/>
        <path fill="#EC6A00" d="m41.288 47.148-10.82-1.608 2.042-4.256 7.998 1.189z"/>
        <path d="m31.58 44.95 8.8 1.308-.52-3.126-6.915-1.027-1.365 2.845zm9.708 2.946a.814.814 0 0 1-.11-.008l-10.82-1.608a.749.749 0 0 1-.564-1.063l2.042-4.256a.748.748 0 0 1 .783-.416l7.999 1.189a.745.745 0 0 1 .627.616l.78 4.675a.745.745 0 0 1-.737.87z" fill="#412211"/>
        <path d="M31.859 12.06a6.447 6.447 0 1 1-12.757-1.876 6.447 6.447 0 0 1 12.757 1.877" fill="#FFDE24"/>
        <path d="M25.477 5.609a5.522 5.522 0 0 0-5.451 4.711 5.48 5.48 0 0 0 1.03 4.091 5.476 5.476 0 0 0 3.622 2.165 5.474 5.474 0 0 0 4.09-1.03 5.474 5.474 0 0 0 2.166-3.621 5.473 5.473 0 0 0-1.03-4.092 5.475 5.475 0 0 0-3.621-2.165 5.515 5.515 0 0 0-.806-.059m.019 12.896c-.362 0-.726-.026-1.09-.08a7.332 7.332 0 0 1-4.85-2.899 7.33 7.33 0 0 1-1.378-5.478c.592-4.027 4.352-6.822 8.377-6.229a7.332 7.332 0 0 1 4.849 2.899 7.33 7.33 0 0 1 1.379 5.479 7.333 7.333 0 0 1-2.898 4.849 7.325 7.325 0 0 1-4.39 1.459" fill="#412211"/>
        <path d="M62.148 16.518A6.447 6.447 0 1 1 49.39 14.64a6.447 6.447 0 0 1 12.757 1.877" fill="#FFDE24"/>
        <path d="M55.758 10.066a5.467 5.467 0 0 0-3.278 1.09 5.471 5.471 0 0 0-2.164 3.62 5.519 5.519 0 0 0 4.65 6.258 5.482 5.482 0 0 0 4.093-1.03 5.48 5.48 0 0 0 2.165-3.623 5.48 5.48 0 0 0-1.03-4.09 5.476 5.476 0 0 0-3.622-2.165 5.619 5.619 0 0 0-.815-.06m.028 12.896c-.361 0-.725-.026-1.09-.08-4.026-.593-6.822-4.35-6.228-8.378a7.329 7.329 0 0 1 2.898-4.848 7.334 7.334 0 0 1 5.48-1.38 7.333 7.333 0 0 1 4.849 2.9 7.334 7.334 0 0 1 1.378 5.478 7.337 7.337 0 0 1-2.899 4.85 7.332 7.332 0 0 1-4.389 1.458" fill="#412211"/>
        <path d="M26.827 64.086c-1-.24-1.996-.503-2.985-.79-6.046-1.748-12.491-4.072-16.165-9.52-5.67-8.407-3.388-26.461 7.199-36.581 8.81-8.422 21.884-11.54 34.948-5.89C65.39 18.037 70.412 35.21 68.722 45.15c-.851 5.002-2.075 9.944-5.496 13.873-4.687 5.38-11.774 7.013-18.641 7.052-5.97.033-11.952-.596-17.758-1.99" fill="#FFDE24"/>
        <path d="M27.045 63.177c5.568 1.336 11.465 1.998 17.535 1.963 8.054-.045 14.09-2.31 17.94-6.73 3.093-3.552 4.347-7.932 5.28-13.417.89-5.23-.195-11.799-2.902-17.572-2.301-4.909-6.85-11.54-15.445-15.259-6.063-2.622-12.47-3.407-18.526-2.27-5.745 1.077-11.073 3.836-15.406 7.978-10.417 9.958-12.386 27.5-7.07 35.383 3.57 5.295 9.95 7.497 15.65 9.146.967.28 1.957.541 2.944.778m17.092 3.833c-6.058 0-11.953-.678-17.528-2.015a69.202 69.202 0 0 1-3.026-.8c-6.016-1.74-12.761-4.084-16.681-9.897-2.9-4.3-3.888-11.153-2.642-18.33C5.59 28.3 9.13 21.393 14.23 16.52c4.596-4.393 10.25-7.32 16.352-8.465 6.425-1.206 13.207-.378 19.613 2.393 9.133 3.95 13.957 10.98 16.395 16.18 2.863 6.105 4.004 13.088 3.053 18.68-.361 2.12-.894 4.89-1.825 7.496-.966 2.703-2.237 4.938-3.887 6.833-4.22 4.844-10.726 7.325-19.341 7.373l-.453.001M26.777 6.96c.261.659-.636 1.63-2.002 2.173-1.367.542-2.686.448-2.947-.21-.261-.657.636-1.63 2.002-2.172 1.367-.542 2.686-.448 2.947.21M55.916 11.329c-.439.555.14 1.744 1.292 2.657 1.152.912 2.443 1.202 2.882.648.44-.555-.139-1.744-1.292-2.657-1.152-.913-2.443-1.203-2.882-.648" fill="#412211"/>
        <path d="M41.623 8.867s-3.156 6.784-15.857 1.487c0 0 8.245-3.066 15.857-1.487" fill="#412211"/>
        <path d="M40.788 8.744s1.068 7.405 14.756 5.992c0 0-7.012-5.31-14.756-5.992" fill="#412211"/>
        <path d="M48.401 10.138s-5.45-1.59-4.937-4.82c.063-.395-.383-.687-.734-.474-1.378.842-2.772 3.833-1.316 5.441 2.091 2.31 6.987-.147 6.987-.147M43.533 15.185a.66.66 0 0 1-.076-.005l-6.072-.894a.514.514 0 1 1 .15-1.016l6.072.893a.513.513 0 0 1-.074 1.022M43.18 17.587a.66.66 0 0 1-.076-.005l-6.072-.894a.514.514 0 1 1 .149-1.016l6.073.893a.513.513 0 0 1-.074 1.022" fill="#412211"/>
        <path d="M39.79 19.541a.515.515 0 0 1-.509-.588l.707-4.803a.513.513 0 0 1 1.016.15l-.707 4.802a.514.514 0 0 1-.507.44" fill="#412211"/>
        <path d="M42.827 19.988a.66.66 0 0 1-.076-.005l-6.072-.894a.514.514 0 1 1 .148-1.016l6.074.893a.513.513 0 0 1-.075 1.022M5.725 39.37a1.437 1.437 0 0 1-.896-2.563c5.624-4.47 11.54-5.001 11.79-5.022a1.437 1.437 0 0 1 .238 2.866c-.09.009-5.345.519-10.238 4.408-.265.21-.58.312-.894.312M5.505 45.254a1.437 1.437 0 0 1-.896-2.564c5.624-4.469 11.54-5 11.79-5.022a1.438 1.438 0 0 1 .238 2.866c-.09.01-5.345.52-10.238 4.408-.265.21-.58.312-.894.312M6.543 51.008a1.437 1.437 0 0 1-.896-2.564c5.624-4.469 11.542-5 11.791-5.022a1.438 1.438 0 0 1 .238 2.866c-.092.01-5.346.52-10.238 4.408-.265.21-.58.312-.894.312M67.653 48.684c-.476 0-.941-.236-1.215-.668-3.327-5.24-8.075-7.374-8.123-7.395a1.44 1.44 0 0 1-.74-1.893 1.436 1.436 0 0 1 1.889-.744c.226.098 5.582 2.474 9.402 8.49a1.439 1.439 0 0 1-1.213 2.21M66.129 54.357c-.472 0-.934-.232-1.21-.658-3.397-5.26-8.234-7.41-8.282-7.432a1.44 1.44 0 0 1-.747-1.89 1.437 1.437 0 0 1 1.886-.75c.23.098 5.667 2.486 9.56 8.512a1.438 1.438 0 0 1-1.207 2.218M63.295 59.478c-.472 0-.934-.232-1.209-.658-3.398-5.26-8.235-7.41-8.283-7.432a1.437 1.437 0 0 1 1.139-2.641c.23.1 5.667 2.487 9.56 8.513a1.438 1.438 0 0 1-1.207 2.218" fill="#412211"/>
        <path d="M47.402 45.077c-.595 4.044-6.042 6.592-12.166 5.691-6.125-.901-10.607-4.91-10.012-8.955.596-4.044 6.043-6.592 12.167-5.691 6.124.902 10.606 4.911 10.01 8.955" fill="#FEFEFE"/>
        <path d="M27.12 35.138a3.635 3.635 0 1 1-7.192-1.058 3.635 3.635 0 0 1 7.192 1.058" fill="#EEAD94"/>
        <path d="M23.522 31.067a3.547 3.547 0 0 0-3.5 3.026 3.513 3.513 0 0 0 .661 2.628 3.518 3.518 0 0 0 2.326 1.391 3.547 3.547 0 0 0 4.02-2.988 3.545 3.545 0 0 0-3.507-4.057m.005 7.27a3.732 3.732 0 0 1-3.69-4.27 3.704 3.704 0 0 1 1.463-2.45 3.709 3.709 0 0 1 2.767-.697 3.704 3.704 0 0 1 2.45 1.464c.593.8.841 1.782.696 2.767a3.735 3.735 0 0 1-3.686 3.186" fill="#F4B5AD"/>
        <path d="M54.464 39.101a3.635 3.635 0 1 1-7.192-1.058 3.635 3.635 0 0 1 7.192 1.058" fill="#EEAD94"/>
        <path d="M50.86 35.03c-.754 0-1.487.241-2.104.7a3.518 3.518 0 0 0-1.391 2.326 3.513 3.513 0 0 0 .662 2.628 3.518 3.518 0 0 0 2.326 1.391 3.545 3.545 0 0 0 4.019-2.988 3.545 3.545 0 0 0-3.511-4.057m.01 7.27a3.732 3.732 0 0 1-3.691-4.27 3.704 3.704 0 0 1 1.464-2.45 3.709 3.709 0 0 1 2.767-.697 3.734 3.734 0 0 1 3.146 4.232A3.735 3.735 0 0 1 50.87 42.3" fill="#F4B5AD"/>
        <path d="M36.556 42.41a.616.616 0 0 1-.611-.706l.481-3.266a.618.618 0 0 1 1.22.18l-.48 3.265a.616.616 0 0 1-.61.527" fill="#412211"/>
        <path d="M35.367 34.724c1.198-.175 2.694-.297 4.547.767 2 1.148 1.056 2.404-.049 2.842-1.106.44-3.507 1.18-5.585-.807-1.967-1.879.45-2.709 1.087-2.802" fill="#EC6A00"/>
        <path d="M36.738 35.355c-.44 0-.858.05-1.263.11-.405.058-1.1.371-1.195.665-.043.136.07.43.516.856 1.271 1.215 2.84 1.428 4.793.653.448-.178.731-.485.745-.678.012-.17-.19-.474-.793-.822-1.062-.61-1.973-.784-2.803-.784zm.738 4.229c-1.69 0-2.908-.748-3.713-1.518-1.058-1.01-1.077-1.857-.907-2.39.368-1.154 1.86-1.611 2.403-1.692 1.462-.212 3.083-.257 5.027.86 1.35.773 1.581 1.636 1.54 2.224-.07.98-.917 1.656-1.686 1.96-.993.395-1.88.556-2.664.556z" fill="#412211"/>
        <path d="M44.987 30.211c.58.624 1.408.944 2.247.992.852.049 1.673-.267 2.314-.816.19-.164.3-.484.3-.727 0-.252-.111-.553-.3-.726-.435-.4-1.016-.374-1.452 0l-.097.08.207-.161a2.22 2.22 0 0 1-.468.269l.245-.104a2.444 2.444 0 0 1-.562.15l.273-.037a2.58 2.58 0 0 1-.627.002l.273.037a2.54 2.54 0 0 1-.606-.158l.246.103a2.269 2.269 0 0 1-.503-.29l.208.16a2.105 2.105 0 0 1-.245-.227c-.367-.394-1.087-.398-1.453 0a1.05 1.05 0 0 0 0 1.453M32.977 25.209c-.581-.623-1.408-.943-2.248-.99-.852-.047-1.673.268-2.314.819-.19.164-.301.483-.301.726 0 .252.112.553.3.726.437.4 1.018.375 1.454 0l.097-.08-.208.16a2.22 2.22 0 0 1 .468-.268l-.245.104c.182-.074.369-.123.562-.151l-.273.037a2.54 2.54 0 0 1 .669.002 25.53 25.53 0 0 1-.273-.037c.208.032.408.087.602.169l-.245-.104c.166.073.32.164.465.274-.07-.054-.14-.107-.208-.161.088.07.169.145.245.227.368.394 1.087.399 1.453 0a1.05 1.05 0 0 0 0-1.453" fill="#FEFEFE"/>
        <path d="M47.256 34.703a1.396 1.396 0 1 1-2.672-.812 1.396 1.396 0 0 1 2.672.812M30.635 32.233a1.396 1.396 0 1 1-2.672-.812 1.396 1.396 0 0 1 2.672.812" fill="#412211"/>
        <path fill="#EC6A00" d="m41.288 47.148-10.82-1.608 2.042-4.256 7.998 1.189z"/>
        <path d="m31.58 44.95 8.8 1.308-.52-3.126-6.915-1.027-1.365 2.845zm9.708 2.946a.814.814 0 0 1-.11-.008l-10.82-1.608a.749.749 0 0 1-.564-1.063l2.042-4.256a.748.748 0 0 1 .783-.416l7.999 1.189a.745.745 0 0 1 .627.616l.78 4.675a.745.745 0 0 1-.737.87z" fill="#412211"/>
    </g>
</svg>
